<?xml version="1.0" standalone="no"?>
<!DOCTYPE svg PUBLIC "-//W3C//DTD SVG 20010904//EN"
 "http://www.w3.org/TR/2001/REC-SVG-20010904/DTD/svg10.dtd">
<svg version="1.0" xmlns="http://www.w3.org/2000/svg"
 width="90.000000pt" height="90.000000pt" viewBox="0 0 90.000000 90.000000"
 preserveAspectRatio="xMidYMid meet">

<g transform="translate(0.000000,90.000000) scale(0.100000,-0.100000)"
fill="#000000" stroke="none">
<path d="M361 478 c-18 -46 -35 -89 -38 -95 -3 -9 5 -13 24 -13 21 0 33 7 40
23 11 24 12 22 55 -83 10 -25 10 -25 24 12 12 36 11 43 -27 134 -21 54 -41 99
-42 101 -2 2 -18 -34 -36 -79z"/>
<path d="M492 535 c-16 -35 -15 -45 9 -109 19 -50 25 -56 50 -56 16 0 29 1 29
3 0 4 -71 181 -74 185 -2 1 -8 -9 -14 -23z"/>
</g>
</svg>
