<?xml version="1.0" standalone="no"?>
<!DOCTYPE svg PUBLIC "-//W3C//DTD SVG 20010904//EN"
 "http://www.w3.org/TR/2001/REC-SVG-20010904/DTD/svg10.dtd">
<svg version="1.0" xmlns="http://www.w3.org/2000/svg"
 width="640.000000pt" height="691.000000pt" viewBox="0 0 640.000000 691.000000"
 preserveAspectRatio="xMidYMid meet">

<g transform="translate(0.000000,691.000000) scale(0.100000,-0.100000)"
fill="#000000" stroke="none">
<path d="M2022 6422 c-13 -9 -58 -115 -158 -365 -30 -76 -58 -145 -63 -155 -5
-9 -17 -39 -26 -67 -10 -27 -24 -63 -31 -80 -13 -29 -109 -268 -244 -605 -34
-85 -68 -171 -77 -190 -8 -19 -18 -44 -23 -55 -4 -11 -18 -47 -31 -80 -25 -67
-46 -117 -66 -157 -7 -14 -13 -33 -13 -41 0 -9 -8 -30 -17 -49 -33 -66 -41
-84 -61 -143 -11 -33 -27 -73 -36 -90 -9 -16 -16 -38 -16 -47 0 -9 -4 -19 -9
-22 -5 -3 -12 -17 -15 -31 -4 -14 -17 -49 -31 -78 -13 -28 -31 -70 -39 -92
-35 -96 -148 -372 -167 -407 -5 -10 -9 -24 -9 -31 0 -7 -16 -51 -36 -98 -19
-46 -39 -93 -43 -104 -5 -11 -18 -41 -30 -66 -11 -25 -21 -51 -21 -57 0 -6 -6
-23 -14 -39 -8 -15 -22 -48 -31 -73 -9 -25 -20 -52 -25 -60 -4 -8 -24 -58 -44
-110 -52 -133 -95 -238 -116 -285 -10 -22 -25 -62 -34 -88 -9 -27 -30 -77 -46
-112 -17 -35 -30 -71 -30 -79 0 -8 -4 -18 -10 -21 -5 -3 -10 -13 -10 -22 0 -8
-7 -29 -15 -46 -8 -18 -28 -68 -45 -112 l-32 -80 22 -17 c21 -17 62 -18 614
-17 631 0 645 1 671 49 22 41 55 116 55 126 1 5 9 27 20 49 11 22 19 46 20 53
0 7 4 20 10 30 13 25 32 70 98 237 174 437 176 443 209 451 41 11 66 -28 148
-236 42 -107 83 -208 90 -225 7 -16 21 -50 31 -75 15 -40 35 -88 64 -155 4
-11 18 -45 30 -75 11 -30 25 -64 30 -75 5 -11 17 -42 26 -70 9 -27 25 -70 36
-95 12 -25 26 -58 33 -75 7 -16 18 -41 24 -55 6 -14 35 -88 66 -165 31 -77 62
-153 70 -170 7 -16 21 -54 30 -83 10 -29 21 -55 26 -58 5 -3 9 -13 9 -22 0 -9
7 -30 15 -46 8 -15 15 -33 15 -39 0 -5 9 -29 20 -53 43 -95 58 -131 71 -169 7
-22 16 -44 20 -50 4 -5 23 -53 43 -105 21 -52 43 -108 50 -125 8 -16 21 -50
31 -75 9 -25 23 -58 30 -75 7 -16 23 -55 34 -85 12 -30 26 -64 31 -75 36 -81
50 -115 50 -123 0 -9 18 -50 43 -102 16 -31 48 -37 64 -12 6 11 30 64 53 118
22 54 45 108 50 119 5 11 19 45 30 75 12 30 26 64 30 75 5 11 19 45 31 75 11
30 27 69 34 85 8 17 30 73 51 125 20 52 39 100 43 105 4 6 15 35 26 65 10 30
24 64 32 75 7 11 13 26 13 35 0 8 6 26 13 40 7 14 24 54 37 90 13 36 26 70 30
75 4 6 17 39 30 75 13 36 29 76 36 90 25 52 74 192 74 214 0 13 -9 45 -21 72
-11 27 -24 58 -29 69 -4 11 -19 47 -31 80 -13 33 -27 64 -31 70 -4 5 -8 16 -8
25 -1 8 -9 33 -20 55 -11 22 -19 45 -20 52 0 6 -6 24 -14 40 -18 37 -40 88
-61 143 -9 25 -21 53 -26 63 -5 9 -16 39 -25 65 -9 26 -22 61 -30 77 -7 17
-65 161 -129 320 -64 160 -122 304 -129 320 -7 17 -19 46 -26 65 -11 31 -75
188 -99 245 -5 11 -19 45 -31 75 -11 30 -25 64 -30 75 -5 11 -32 79 -60 150
-49 125 -98 246 -126 312 -8 17 -14 36 -14 41 0 6 -6 23 -14 39 -8 15 -24 53
-36 83 -20 52 -25 65 -55 135 -7 17 -20 50 -30 75 -9 25 -23 58 -31 73 -8 16
-14 34 -14 40 -1 7 -9 30 -20 52 -11 22 -19 45 -20 52 0 6 -6 24 -14 40 -15
29 -34 74 -56 133 -7 19 -29 73 -48 120 -18 47 -47 117 -62 155 -15 39 -44
108 -62 155 -19 47 -41 101 -48 120 -7 19 -21 53 -30 75 -9 22 -25 60 -34 85
-10 25 -24 59 -31 75 -13 30 -52 127 -95 235 -11 30 -25 64 -30 75 -6 11 -21
49 -34 85 -37 101 -76 184 -89 192 -15 10 -19 10 -35 0z"/>
<path d="M4390 6408 c-11 -12 -20 -26 -20 -32 0 -5 -8 -28 -19 -50 -10 -23
-46 -113 -81 -201 -34 -88 -70 -178 -80 -200 -10 -22 -35 -83 -55 -135 -20
-52 -43 -109 -51 -127 -7 -17 -14 -36 -14 -41 0 -6 -6 -23 -14 -39 -30 -59
-208 -501 -246 -608 -30 -88 -30 -125 4 -220 18 -50 22 -59 71 -168 25 -55 76
-190 94 -248 5 -14 13 -34 19 -45 6 -10 18 -37 27 -59 9 -22 22 -53 30 -70 7
-16 30 -73 50 -125 20 -52 41 -104 45 -115 10 -23 45 -111 67 -170 8 -22 21
-52 29 -67 8 -14 14 -31 14 -38 0 -7 6 -26 14 -43 7 -18 30 -72 50 -122 21
-49 41 -99 46 -110 5 -11 16 -36 24 -55 8 -19 23 -57 32 -85 9 -27 22 -63 29
-80 8 -16 30 -70 50 -120 20 -49 40 -99 45 -110 29 -66 50 -119 50 -126 0 -5
13 -37 29 -71 16 -35 39 -92 52 -128 12 -36 25 -69 29 -75 4 -5 17 -39 29 -75
13 -36 29 -80 37 -97 8 -18 20 -48 28 -65 37 -91 47 -108 70 -123 22 -15 86
-16 630 -13 590 3 606 4 625 23 19 20 19 21 -10 95 -16 41 -34 84 -39 95 -5
11 -19 45 -30 75 -11 30 -25 64 -30 75 -10 21 -111 270 -140 345 -19 49 -125
313 -139 345 -5 11 -17 40 -27 65 -9 25 -26 64 -36 87 -10 23 -18 47 -18 53 0
5 -4 18 -10 28 -10 19 -80 187 -100 242 -6 19 -18 49 -25 65 -8 17 -23 55 -35
85 -11 30 -25 64 -30 75 -4 11 -24 61 -45 110 -20 50 -40 99 -45 110 -4 11
-25 63 -45 115 -20 52 -43 109 -50 125 -34 77 -45 104 -45 113 0 6 -7 25 -16
44 -38 76 -44 90 -44 105 0 8 -6 27 -13 41 -21 41 -41 88 -83 195 -21 54 -42
101 -46 103 -4 3 -8 12 -8 20 0 8 -26 80 -59 162 -69 172 -168 418 -180 447
-5 11 -17 40 -27 65 -9 25 -25 63 -34 85 -9 22 -24 58 -32 80 -142 359 -238
588 -252 597 -17 12 -24 10 -46 -14z"/>
</g>
</svg>
